<svg xmlns="http://www.w3.org/2000/svg" width="85.029" height="88.671" viewBox="0 0 85.029 88.671">
  <path id="Icon_simple-facebook" data-name="Icon simple-facebook" d="M84.029,44.059C84.029,19.726,65.219,0,42.015,0S0,19.726,0,44.059C0,66.05,15.364,84.277,35.45,87.582V56.795H24.782V44.059H35.45V34.352c0-11.042,6.273-17.142,15.869-17.142a61.71,61.71,0,0,1,9.405.86V28.914h-5.3c-5.219,0-6.847,3.4-6.847,6.88v8.265H60.232L58.369,56.795h-9.79V87.582C68.665,84.277,84.029,66.05,84.029,44.059Z" transform="translate(0.5 0.5)" fill="#1f80ff" stroke="#fff" stroke-width="1"/>
</svg>
