<svg xmlns="http://www.w3.org/2000/svg" width="90.643" height="88.427" viewBox="0 0 90.643 88.427">
  <path id="Icon_simple-github" data-name="Icon simple-github" d="M44.822.446A44.824,44.824,0,0,0,30.647,87.792c2.241.422,3.063-.964,3.063-2.155,0-1.065-.037-3.885-.056-7.62C21.186,80.721,18.556,72,18.556,72c-2.039-5.173-4.986-6.555-4.986-6.555-4.06-2.779.314-2.723.314-2.723,4.5.314,6.865,4.617,6.865,4.617,4,6.854,10.492,4.874,13.054,3.728a9.556,9.556,0,0,1,2.839-5.995C26.688,63.954,16.225,60.1,16.225,42.925A17.292,17.292,0,0,1,20.838,30.9c-.5-1.132-2.017-5.689.392-11.863,0,0,3.754-1.2,12.326,4.594a42.258,42.258,0,0,1,22.411,0c8.516-5.8,12.27-4.594,12.27-4.594,2.409,6.174.9,10.731.448,11.863A17.363,17.363,0,0,1,73.28,42.925c0,17.219-10.477,21.01-20.45,22.112,1.569,1.345,3.025,4.094,3.025,8.292,0,6-.056,10.817-.056,12.274,0,1.177.784,2.577,3.081,2.129A44.767,44.767,0,0,0,44.822.445" transform="translate(0.5 0.055)" fill="#890093" stroke="#fff" stroke-width="1"/>
</svg>
