<svg width="403" height="403" viewBox="0 0 403 403" fill="none" xmlns="http://www.w3.org/2000/svg">
<g clip-path="url(#clip0_119_204)">
<path opacity="0.937" fill-rule="evenodd" clip-rule="evenodd" d="M187.726 8.26472C260.526 5.88607 315.23 35.7962 351.838 97.9952C367.494 127.824 375.365 159.571 375.451 193.235C374.271 196.515 372.041 198.745 368.761 199.926C350.657 200.451 332.554 200.451 314.45 199.926C310.249 198.346 307.757 195.328 306.973 190.874C304.366 152.208 288.492 120.33 259.353 95.2403C227.192 74.2653 193.346 71.1169 157.815 85.795C126.627 102.348 107.081 127.929 99.1758 162.538C97.0136 172.95 95.4394 183.445 94.4531 194.023C92.9639 196.823 90.734 198.791 87.7627 199.926C69.6592 200.451 51.5557 200.451 33.4522 199.926C27.4401 196.952 25.0787 192.098 26.3682 185.364C28.0773 142.314 41.8517 103.746 67.6914 69.6593C99.3529 33.0349 139.365 12.5701 187.726 8.26472ZM186.938 106.653C188.276 106.527 189.588 106.658 190.874 107.047C191.827 107.923 191.827 108.842 190.874 109.802C188.061 110.873 186.75 109.823 186.938 106.653ZM187.726 116.886C190.503 116.405 191.946 117.455 192.055 120.034C188.492 122.396 187.049 121.347 187.726 116.886ZM194.81 152.306C195.827 153.773 195.827 155.347 194.81 157.028C194.479 155.591 194.479 154.017 194.81 152.306ZM153.093 153.88C155.02 153.494 156.332 154.15 157.028 155.848C154.632 159.77 152.795 159.507 151.519 155.061C152.24 154.842 152.764 154.448 153.093 153.88Z" fill="#031041"/>
<path fill-rule="evenodd" clip-rule="evenodd" d="M365.612 146.009C365.612 146.796 365.612 147.583 365.612 148.37C359.128 147.096 352.568 146.571 345.935 146.796C345.41 145.747 344.885 144.697 344.36 143.647C333.634 105.511 311.857 75.4699 279.03 53.5233C228.954 25.9274 178.316 24.8779 127.118 50.3749C96.4209 68.4914 74.7754 94.335 62.1816 127.905C54.8359 147.186 50.7692 167.126 49.9814 187.725C49.2088 190.45 48.9464 193.337 49.1943 196.384C44.2024 196.514 39.2174 196.384 34.2392 195.99C33.0586 194.809 31.8779 193.629 30.6972 192.448C30.4691 139.58 48.7039 94.3216 85.4013 56.6718C129.707 17.8478 180.869 4.46686 238.888 16.5292C306.426 34.8731 348.667 78.0329 365.612 146.009ZM186.938 106.653C186.75 109.823 188.061 110.873 190.874 109.802C191.827 108.841 191.827 107.923 190.874 107.047C189.588 106.658 188.276 106.527 186.938 106.653ZM187.726 116.886C187.049 121.347 188.492 122.396 192.055 120.034C191.946 117.455 190.503 116.405 187.726 116.886Z" fill="#627FFC"/>
<path fill-rule="evenodd" clip-rule="evenodd" d="M176.706 21.6455C179.592 21.6455 182.478 21.6455 185.364 21.6455C185.498 22.6861 185.236 23.6044 184.577 24.4004C148.389 30.298 116.643 45.2531 89.3369 69.2656C77.2426 81.7689 67.7973 96.0683 61.001 112.163C60.0653 112.894 59.0157 113.156 57.8525 112.95C65.0572 88.5506 78.7005 68.479 98.7822 52.7363C122.177 35.787 148.152 25.4234 176.706 21.6455Z" fill="#AEBDFF"/>
<path fill-rule="evenodd" clip-rule="evenodd" d="M344.36 143.648C344.687 145.574 343.9 146.624 341.999 146.796C334.756 144.552 328.591 140.616 323.502 134.989C320.658 131.116 317.641 127.442 314.45 123.97C313.332 121.995 312.02 120.158 310.515 118.46C288.84 79.2675 255.519 57.8844 210.552 54.3106C142.568 52.2528 98.3595 83.606 77.9238 148.37C73.3784 164.053 71.1482 180.057 71.2334 196.384C64.1494 196.384 57.0654 196.384 49.9814 196.384C49.9814 193.498 49.9814 190.612 49.9814 187.726C50.7692 167.126 54.8359 147.186 62.1816 127.905C74.7755 94.3351 96.4209 68.4915 127.118 50.375C178.316 24.878 228.954 25.9276 279.03 53.5235C311.857 75.4701 333.634 105.511 344.36 143.648ZM186.938 106.653C186.75 109.823 188.061 110.873 190.874 109.802C191.827 108.842 191.827 107.923 190.874 107.047C189.588 106.658 188.276 106.527 186.938 106.653ZM187.726 116.886C187.049 121.347 188.492 122.396 192.055 120.034C191.946 117.455 190.503 116.405 187.726 116.886Z" fill="#FDCD08"/>
<path fill-rule="evenodd" clip-rule="evenodd" d="M310.515 118.46C295.39 100.401 277.286 86.102 256.204 75.5626C236.163 66.2363 215.173 62.8254 193.235 65.3302C180.721 67.0001 169.702 71.854 160.177 79.8917C123.4 98.0165 101.229 127.402 93.666 168.048C92.6704 176.225 91.6211 184.359 90.5176 192.448C89.5518 194.2 88.1083 195.381 86.1885 195.99C81.21 196.384 76.2254 196.515 71.2334 196.384C71.1483 180.057 73.3785 164.053 77.9239 148.37C98.3596 83.6061 142.568 52.2528 210.552 54.3106C255.519 57.8844 288.84 79.2675 310.515 118.46ZM186.939 106.653C186.75 109.823 188.061 110.873 190.874 109.802C191.827 108.842 191.827 107.923 190.874 107.047C189.588 106.658 188.276 106.527 186.939 106.653Z" fill="#F90EB1"/>
<path fill-rule="evenodd" clip-rule="evenodd" d="M310.515 118.46C312.02 120.158 313.332 121.995 314.45 123.97C325.167 146.897 330.676 171.035 330.979 196.384C325.726 196.514 320.478 196.384 315.237 195.99C313.795 195.072 312.614 193.891 311.695 192.448C308.663 151.619 291.741 117.904 260.927 91.3047C229.167 71.2743 195.584 67.47 160.177 79.8916C169.702 71.8539 180.721 67 193.235 65.3301C215.173 62.8253 236.163 66.2362 256.204 75.5625C277.286 86.1019 295.39 100.401 310.515 118.46Z" fill="#BB0C94"/>
<path opacity="0.924" fill-rule="evenodd" clip-rule="evenodd" d="M183.79 99.5693C195.087 98.1312 199.023 102.722 195.597 113.344C198.914 116.65 199.57 120.454 197.564 124.757C194.416 126.939 190.874 127.989 186.938 127.905C185.42 127.874 183.977 127.612 182.609 127.118C181.936 118.193 181.28 109.273 180.642 100.356C181.9 100.567 182.949 100.304 183.79 99.5693ZM186.938 106.653C186.75 109.823 188.061 110.873 190.874 109.802C191.827 108.841 191.827 107.923 190.874 107.047C189.588 106.658 188.276 106.527 186.938 106.653ZM187.726 116.886C187.049 121.347 188.492 122.396 192.055 120.034C191.946 117.455 190.503 116.405 187.726 116.886Z" fill="white"/>
<path opacity="0.922" fill-rule="evenodd" clip-rule="evenodd" d="M201.894 99.5693C207.419 99.5709 212.929 99.833 218.423 100.356C218.423 102.456 218.423 104.554 218.423 106.653C215.002 106.523 211.592 106.654 208.19 107.047C207.498 108.114 207.235 109.295 207.403 110.589C208.978 110.589 210.552 110.589 212.126 110.589C212.126 112.688 212.126 114.787 212.126 116.886C210.552 116.886 208.978 116.886 207.403 116.886C207.403 118.198 207.403 119.509 207.403 120.821C210.796 121.278 214.206 121.541 217.636 121.608C217.837 123.412 217.575 125.118 216.849 126.725C211.561 127.35 206.314 127.219 201.106 126.331C200.844 125.544 200.581 124.757 200.319 123.97C200.89 115.836 201.414 107.703 201.894 99.5693Z" fill="white"/>
<path fill-rule="evenodd" clip-rule="evenodd" d="M314.45 123.97C317.641 127.442 320.658 131.116 323.502 134.989C328.591 140.616 334.756 144.552 341.999 146.796C343.9 146.624 344.687 145.574 344.36 143.647C344.885 144.697 345.41 145.747 345.935 146.796C350.285 163.038 352.383 179.567 352.231 196.384C345.147 196.384 338.063 196.384 330.979 196.384C330.676 171.035 325.167 146.897 314.45 123.97Z" fill="#BE9E13"/>
<path opacity="0.908" fill-rule="evenodd" clip-rule="evenodd" d="M192.448 141.286C194.478 140.958 196.184 141.483 197.564 142.86C199.796 151.26 202.026 159.656 204.255 168.048C202.219 168.819 200.12 169.081 197.958 168.835C196.729 160.982 195.154 160.719 193.235 168.048C191.205 168.874 189.106 169.399 186.938 169.622C187.764 159.937 189.601 150.491 192.448 141.286ZM194.81 152.306C194.479 154.017 194.479 155.591 194.81 157.028C195.827 155.347 195.827 153.773 194.81 152.306Z" fill="white"/>
<path opacity="0.917" fill-rule="evenodd" clip-rule="evenodd" d="M201.894 141.286C207.682 141.27 213.454 141.532 219.21 142.073C219.288 144.571 218.763 146.932 217.636 149.157C216.399 148.52 215.087 148.258 213.7 148.37C213.241 155.183 212.979 162.004 212.913 168.835C210.552 168.835 208.19 168.835 205.829 168.835C206.382 162.027 206.645 155.206 206.616 148.37C205.042 148.37 203.468 148.37 201.894 148.37C201.894 146.009 201.894 143.647 201.894 141.286Z" fill="white"/>
<path opacity="0.907" fill-rule="evenodd" clip-rule="evenodd" d="M222.358 142.073C224.426 142.549 226.525 142.943 228.655 143.254C229.125 144.09 229.387 145.008 229.442 146.009C228.097 154.111 227.048 162.244 226.294 170.409C223.918 170.539 221.557 170.408 219.21 170.016C219.644 160.731 220.694 151.416 222.358 142.073Z" fill="white"/>
<path opacity="0.925" fill-rule="evenodd" clip-rule="evenodd" d="M176.706 142.86C178.805 142.86 180.904 142.86 183.003 142.86C183.003 144.96 183.003 147.058 183.003 149.157C180.375 149.464 177.751 149.858 175.132 150.338C173.867 151.164 173.343 152.344 173.558 153.88C175.394 153.88 177.231 153.88 179.067 153.88C179.126 156.01 179.389 158.109 179.854 160.177C174.979 159.755 174.061 161.329 177.1 164.899C180.103 164.264 183.121 163.739 186.151 163.325C186.151 165.424 186.151 167.523 186.151 169.622C178.44 170.31 171.093 171.622 164.112 173.558C161.827 171.67 159.597 169.571 157.422 167.261C157.38 169.388 157.774 171.487 158.603 173.558C156.869 175.806 154.507 176.855 151.519 176.706C149.186 168.016 146.956 159.357 144.828 150.731C149.925 147.559 155.303 146.903 160.964 148.764C163.923 151.71 164.841 155.252 163.719 159.39C163.325 160.832 162.407 161.751 160.964 162.145C163.761 164.942 166.516 167.697 169.229 170.409C168.575 163.067 167.657 155.721 166.474 148.37C166.736 147.321 166.999 146.271 167.261 145.222C170.506 144.426 173.654 143.639 176.706 142.86ZM153.093 153.88C152.764 154.448 152.24 154.842 151.519 155.061C152.795 159.507 154.632 159.77 157.028 155.848C156.332 154.15 155.02 153.494 153.093 153.88Z" fill="white"/>
<path opacity="0.904" fill-rule="evenodd" clip-rule="evenodd" d="M232.591 144.435C234.873 144.261 236.973 144.786 238.888 146.009C237.603 150.931 236.947 155.917 236.92 160.964C239.003 156.407 240.97 151.815 242.823 147.189C245.325 146.668 247.424 147.324 249.12 149.157C245.731 156.986 241.927 164.594 237.707 171.983C235.522 172.887 233.423 172.624 231.41 171.196C230.78 162.221 231.174 153.3 232.591 144.435Z" fill="white"/>
<path fill-rule="evenodd" clip-rule="evenodd" d="M365.612 146.009C369.727 160.862 371.695 176.079 371.516 191.661C370.597 193.629 369.154 195.072 367.187 195.99C362.208 196.384 357.223 196.514 352.231 196.384C352.383 179.567 350.285 163.038 345.935 146.796C352.568 146.571 359.128 147.096 365.612 148.37C365.612 147.583 365.612 146.796 365.612 146.009Z" fill="#4963CD"/>
<path opacity="0.924" fill-rule="evenodd" clip-rule="evenodd" d="M253.056 149.157C257.32 150.369 261.518 151.812 265.649 153.486C269.252 155.343 269.514 157.836 266.437 160.964C263.473 160.138 260.587 159.089 257.778 157.815C255.531 160.162 256.055 161.736 259.353 162.538C259.848 164.755 259.324 166.853 257.778 168.835C254.998 166.286 253.162 166.81 252.269 170.409C254.672 172.136 257.297 173.448 260.14 174.345C261.266 176.815 260.61 178.651 258.172 179.854C253.16 178.199 248.307 176.231 243.61 173.951C246.995 165.764 250.143 157.499 253.056 149.157Z" fill="white"/>
<path opacity="0.911" fill-rule="evenodd" clip-rule="evenodd" d="M131.054 156.241C135.769 155.926 139.311 157.762 141.68 161.751C142.002 164.717 140.559 166.291 137.351 166.474C136.044 165.461 134.733 164.411 133.415 163.325C132.493 163.655 131.705 164.179 131.054 164.899C132.559 168.174 134.264 171.322 136.17 174.345C137.046 175.784 138.227 176.441 139.712 176.313C140.319 174.392 140.45 172.424 140.106 170.409C143.882 166.77 146.243 167.558 147.189 172.771C147.907 179.673 144.759 183.608 137.744 184.577C135.921 184.236 134.347 183.448 133.022 182.216C129.736 177.221 126.85 171.974 124.363 166.474C123.549 161.115 125.779 157.704 131.054 156.241Z" fill="white"/>
<path opacity="0.903" fill-rule="evenodd" clip-rule="evenodd" d="M265.649 177.493C265.38 176.834 264.856 176.571 264.075 176.706C263.836 176.194 263.574 175.669 263.288 175.132C266.305 169.622 269.323 164.112 272.34 158.603C277.972 157.41 279.284 159.246 276.275 164.112C273.454 168.443 270.829 172.904 268.404 177.493C267.628 178.021 266.71 178.021 265.649 177.493Z" fill="white"/>
<path opacity="0.813" fill-rule="evenodd" clip-rule="evenodd" d="M264.075 176.706C264.344 177.366 264.869 177.629 265.649 177.493C267.488 179.955 266.963 182.054 264.075 183.79C259.062 181.471 259.062 179.11 264.075 176.706Z" fill="white"/>
<path opacity="0.929" fill-rule="evenodd" clip-rule="evenodd" d="M175.919 192.448C186.823 192.388 195.219 196.848 201.106 205.829C210.815 192.367 223.146 189.35 238.101 196.777C242.222 199.585 245.502 203.127 247.939 207.403C263.877 200.823 276.733 204.497 286.508 218.423C288.765 223.153 289.684 228.138 289.263 233.378C307.075 232.053 317.57 240.187 320.747 257.778C327.972 254.49 333.745 249.504 338.063 242.823C332.736 235.946 331.293 228.337 333.734 219.997C338.168 215.055 342.891 214.793 347.902 219.21C349.27 216.266 351.238 213.773 353.806 211.733C363.885 208.676 369.263 212.48 369.941 223.146C377.664 220.388 381.993 223.143 382.929 231.41C382.445 236.017 380.739 240.083 377.812 243.61C374.632 246.967 371.09 249.854 367.187 252.269C365.542 271.957 357.146 288.092 341.999 300.676C338.895 302.883 335.484 304.457 331.767 305.399C328.137 312.571 322.627 317.688 315.237 320.747C321.679 330.618 322.335 340.85 317.205 351.444C309.794 360.221 300.481 363.107 289.263 360.103C290.58 374.153 284.808 383.729 271.946 388.832C262.691 390.905 254.688 388.675 247.939 382.142C237.545 394.152 225.083 396.907 210.552 390.406C207.003 387.776 203.855 384.759 201.106 381.355C189.494 395.482 175.85 397.713 160.177 388.045C158.433 386.036 156.465 384.33 154.273 382.929C144.446 390.594 134.083 391.513 123.183 385.684C115.307 378.97 112.158 370.444 113.737 360.103C99.197 364.062 88.8332 359.339 82.6465 345.935C81.0723 340.687 81.0723 335.44 82.6465 330.192C83.8083 326.584 85.1204 323.173 86.582 319.96C79.4855 317.587 74.3693 312.995 71.2334 306.186C55.8069 299.679 45.1809 288.528 39.3555 272.734C36.872 265.823 35.2978 258.739 34.6328 251.482C25.9943 247.441 20.8781 240.751 19.2842 231.41C20.2092 223.147 24.5383 220.392 32.2715 223.146C32.9547 212.475 38.3332 208.67 48.4072 211.733C50.9749 213.773 52.9426 216.266 54.3105 219.21C63.4938 213.633 68.8725 216.257 70.4463 227.081C69.748 232.195 68.0427 236.918 65.3301 241.249C64.8053 242.298 64.8053 243.348 65.3301 244.398C69.557 250.25 74.9356 254.709 81.4658 257.778C84.6324 240.19 95.1269 232.057 112.95 233.378C114.183 212.674 125.202 203.098 146.009 204.649C148.872 205.253 151.626 206.171 154.273 207.403C159.265 199.122 166.48 194.137 175.919 192.448Z" fill="#091142"/>
<path fill-rule="evenodd" clip-rule="evenodd" d="M300.282 237.313C289.556 250.464 288.9 264.107 298.314 278.243C298.704 279.796 298.836 281.37 298.708 282.966C296.437 282.725 294.338 282.987 292.411 283.753C290.405 283.664 288.568 284.189 286.901 285.327C285.338 281.783 282.977 278.766 279.817 276.275C273.374 272.882 267.996 274.063 263.682 279.817C262.94 281.966 263.727 283.015 266.043 282.966C268.703 281.832 271.457 281.045 274.308 280.604C277.458 280.407 279.688 281.719 280.998 284.54C281.26 286.901 281.523 289.263 281.785 291.624C282.316 292.472 283.103 292.997 284.146 293.198C287.663 291.115 291.467 289.803 295.56 289.263C289.726 296.665 286.971 305.06 287.295 314.45C288.635 319.259 289.816 324.113 290.837 329.012C290.786 331.051 290.392 333.019 289.656 334.915C289.264 336.524 288.346 337.574 286.901 338.063C279.284 335.792 273.249 337.891 268.798 344.36C261.593 343.528 254.772 344.709 248.333 347.902C244.292 352.042 240.619 356.501 237.313 361.283C232.559 364.57 227.312 365.619 221.571 364.432C217.718 362.937 214.044 361.232 210.552 359.315C213.627 349.857 210.741 342.904 201.894 338.457C199.896 337.775 198.322 338.299 197.171 340.031C200.2 342.541 202.692 345.559 204.648 349.083C205.04 351.694 205.172 354.317 205.042 356.954C182.838 352.445 167.883 360.841 160.177 382.142C158.554 380.517 156.717 379.205 154.667 378.206C150.713 381.483 146.252 383.975 141.286 385.684C127.379 387.19 119.376 381.025 117.279 367.186C117.141 363.302 117.009 359.497 116.886 355.773C111.253 357.289 105.481 357.814 99.5693 357.348C87.9075 352.791 83.3163 344.264 85.7949 331.767C87.4786 326.823 89.9705 322.362 93.2725 318.386C77.8557 314.878 71.4277 305.171 73.9883 289.263C76.8184 280.922 82.4592 275.544 90.9111 273.127C91.322 272.685 91.5841 272.16 91.6982 271.553C82.4167 258.064 84.778 247.044 98.7822 238.494C104.428 236.455 110.2 235.93 116.099 236.92C116.173 215.854 126.668 206.409 147.583 208.584C150.384 209.656 153.138 210.837 155.848 212.126C158.507 208.142 161.524 204.337 164.899 200.713C176.423 193.849 186.786 195.292 195.99 205.042C197.311 208.216 199.016 211.102 201.106 213.7C203.562 208.94 206.711 204.611 210.552 200.713C219.46 194.98 228.381 194.98 237.313 200.713C240.826 204.234 243.843 208.039 246.365 212.126C254.237 208.019 262.502 207.1 271.159 209.371C282.424 215.234 287.408 224.548 286.114 237.313C290.853 236.348 295.576 236.348 300.282 237.313Z" fill="#FE8DDD"/>
<path fill-rule="evenodd" clip-rule="evenodd" d="M137.351 211.339C139.466 211.21 141.565 211.341 143.647 211.733C145.506 211.888 146.818 212.806 147.583 214.487C142.708 215.708 137.986 217.414 133.415 219.604C129.373 223.093 126.618 227.422 125.15 232.591C123.974 233.572 122.794 233.572 121.608 232.591C121.078 225.64 123.702 220 129.48 215.668C132.051 213.992 134.674 212.549 137.351 211.339Z" fill="#FFC4EE"/>
<path fill-rule="evenodd" clip-rule="evenodd" d="M83.8272 264.862C77.5534 264.297 71.5189 265.216 65.7237 267.617C62.2119 268.283 59.0634 267.496 56.2783 265.256C52.2795 261.786 48.8687 257.85 46.0459 253.449C44.0213 251.649 41.66 250.731 38.9619 250.694C34.1776 247.689 29.8485 244.017 25.9746 239.675C20.0468 227.517 23.3265 223.45 35.8135 227.475C36.2817 223.91 36.9377 220.368 37.7813 216.849C40.8963 212.964 44.3071 212.701 48.0137 216.062C49.7548 218.662 51.1979 221.417 52.3428 224.326C54.9559 224.118 57.0548 222.806 58.6397 220.391C62.3148 219.18 64.8072 220.361 66.1172 223.933C66.6565 230.449 64.8199 236.221 60.6074 241.249C60.0827 242.298 60.0827 243.348 60.6074 244.398C66.2154 252.625 73.693 258.528 83.0401 262.107C83.6989 262.903 83.961 263.822 83.8272 264.862Z" fill="#FC8CDC"/>
<path fill-rule="evenodd" clip-rule="evenodd" d="M363.251 249.907C361.604 250.336 360.029 250.992 358.528 251.875C354.641 256.552 350.442 261.013 345.935 265.256C344.885 265.781 343.835 266.305 342.786 266.83C334.668 266.273 326.535 265.616 318.386 264.862C318.486 263.611 319.011 262.562 319.96 261.714C328.939 258.11 336.154 252.339 341.605 244.397C342.13 243.348 342.13 242.298 341.605 241.249C337.046 235.605 335.472 229.308 336.883 222.358C338.622 220.162 340.853 219.507 343.573 220.391C345.071 222.284 346.907 223.727 349.083 224.72C349.853 224.344 350.508 223.82 351.051 223.145C351.777 219.279 353.745 216.262 356.954 214.094C358.528 213.569 360.103 213.569 361.677 214.094C362.857 215.274 364.038 216.455 365.219 217.636C365.376 220.983 365.77 224.263 366.399 227.475C369.027 227.094 371.651 226.438 374.271 225.507C376.169 225.433 377.612 226.22 378.6 227.868C379.486 232.554 378.437 236.751 375.451 240.462C372 244.474 367.933 247.622 363.251 249.907Z" fill="#FC8CDC"/>
<path fill-rule="evenodd" clip-rule="evenodd" d="M161.751 224.72C168.542 223.297 174.183 225.134 178.674 230.23C179.592 233.509 178.412 234.69 175.132 233.771C170.056 229.552 164.677 229.158 158.996 232.591C156.875 235.069 155.826 237.955 155.848 241.249C155.305 241.924 154.65 242.448 153.88 242.823C143.506 231.15 135.241 232.462 129.086 246.759C127.468 247.542 126.551 246.886 126.331 244.791C130.343 229.642 139.133 225.837 152.699 233.378C153.88 231.672 155.061 229.967 156.241 228.262C158.129 227.062 159.965 225.882 161.751 224.72Z" fill="#FC17B4"/>
<path fill-rule="evenodd" clip-rule="evenodd" d="M233.378 223.933C240.868 223.543 246.246 226.691 249.514 233.378C259.225 226.923 267.358 228.497 273.914 238.101C275.178 241.21 275.31 244.358 274.308 247.546C272.1 243.277 269.213 239.473 265.649 236.133C263.101 235.056 260.477 234.794 257.778 235.346C254.291 237.389 251.142 239.881 248.333 242.823C247.563 242.448 246.908 241.924 246.365 241.249C246.232 234.032 242.56 230.096 235.346 229.442C232.204 230.161 229.449 231.604 227.081 233.771C223.031 234.085 222.113 232.379 224.326 228.655C227.14 226.528 230.157 224.954 233.378 223.933Z" fill="#FC17B4"/>
<path fill-rule="evenodd" clip-rule="evenodd" d="M199.532 227.868C210.646 228.613 214.975 234.385 212.52 245.185C210.845 247.648 208.877 249.878 206.616 251.875C215.049 258.724 216.755 266.988 211.732 276.669C209.243 279.95 206.094 282.312 202.287 283.753C200.565 283.313 200.041 282.263 200.713 280.604C209.641 274.474 211.215 266.866 205.436 257.778C202.905 256.07 200.675 254.102 198.745 251.875C200.954 249.408 203.446 247.178 206.223 245.185C208.255 242.133 208.517 238.985 207.01 235.739C204.799 233.321 202.175 231.485 199.139 230.229C198.769 229.382 198.9 228.595 199.532 227.868Z" fill="#FC17B4"/>
<path fill-rule="evenodd" clip-rule="evenodd" d="M300.282 237.313C314.99 243.118 319.319 253.351 313.27 268.011C310.949 269.225 310.293 270.931 311.302 273.127C322.588 276.545 328.623 284.154 329.405 295.953C328.759 305.655 324.036 312.477 315.237 316.418C313.419 316.809 311.583 316.94 309.728 316.812C309.604 317.892 309.735 318.942 310.121 319.96C317.737 329.519 318.787 339.751 313.27 350.657C307.762 356.341 301.072 358.572 293.198 357.348C290.664 356.147 288.04 355.622 285.327 355.773C285.226 359.759 285.095 363.826 284.934 367.974C282.412 381.243 274.409 387.146 260.927 385.684C256.208 383.588 251.747 381.096 247.546 378.206C244.323 380.81 241.175 383.565 238.101 386.471C229.147 391.132 220.227 391.132 211.339 386.471C207.164 382.96 203.753 378.893 201.106 374.271C198.436 378.913 195.025 382.98 190.874 386.471C179.381 393.3 169.149 391.858 160.177 382.142C167.883 360.841 182.838 352.445 205.042 356.954C203.703 359.999 201.472 362.098 198.352 363.251C197.813 364.262 197.945 365.18 198.745 366.006C204.326 366.628 208.261 364.397 210.552 359.315C214.044 361.232 217.718 362.937 221.571 364.432C227.312 365.619 232.559 364.57 237.313 361.283C240.619 356.502 244.292 352.042 248.333 347.902C254.772 344.709 261.593 343.528 268.798 344.36C267.128 347.164 266.079 350.181 265.649 353.412C261.009 351.9 256.286 351.9 251.481 353.412C247.446 355.843 245.085 359.385 244.397 364.038C244.403 366.803 245.714 367.984 248.333 367.58C252.633 356.488 259.193 354.914 268.011 362.857C269.48 363.417 270.661 363.024 271.553 361.677C271.815 358.003 272.078 354.331 272.34 350.657C273.857 346.778 276.611 344.286 280.604 343.18C284.839 343.203 289.038 343.072 293.198 342.786C291.611 340.43 289.511 338.855 286.901 338.063C288.346 337.574 289.264 336.524 289.656 334.915C290.392 333.019 290.786 331.051 290.837 329.012C289.816 324.113 288.635 319.259 287.295 314.45C286.971 305.06 289.726 296.665 295.56 289.263C302.414 290.072 305.824 294.007 305.792 301.069C308.508 301.012 309.557 299.569 308.94 296.74C307.703 286.976 302.193 282.647 292.411 283.753C294.338 282.987 296.437 282.725 298.708 282.966C298.836 281.37 298.704 279.796 298.314 278.243C288.9 264.107 289.556 250.464 300.282 237.313Z" fill="#FB4BC7"/>
<path fill-rule="evenodd" clip-rule="evenodd" d="M106.653 245.185C109.015 245.185 111.376 245.185 113.737 245.185C113.91 246.109 113.648 246.897 112.95 247.546C102.89 251.662 99.3482 259.009 102.324 269.585C99.3624 271.916 97.526 271.128 96.8145 267.224C94.9325 257.469 98.2116 250.122 106.653 245.185Z" fill="#FFC4EE"/>
<path fill-rule="evenodd" clip-rule="evenodd" d="M38.9619 250.694C41.66 250.731 44.0213 251.649 46.0459 253.449C48.8687 257.85 52.2795 261.785 56.2783 265.256C59.0634 267.496 62.2119 268.283 65.7236 267.617C71.5189 265.216 77.5533 264.297 83.8271 264.862C84.6686 266.806 85.7178 268.642 86.9756 270.372C74.6687 277.136 68.8965 287.63 69.6592 301.856C55.8952 294.28 46.5811 282.998 41.7168 268.011C39.9558 262.374 39.0375 256.602 38.9619 250.694Z" fill="#FA4BC6"/>
<path fill-rule="evenodd" clip-rule="evenodd" d="M363.251 249.907C362.681 271.123 353.76 287.784 336.489 299.889C334.965 300.529 333.391 300.922 331.767 301.069C333.098 291.574 330.473 283.31 323.896 276.275C320.98 274.297 318.095 272.33 315.237 270.372C316.495 268.642 317.544 266.806 318.386 264.862C326.535 265.616 334.668 266.273 342.786 266.83C343.835 266.305 344.885 265.781 345.935 265.256C350.442 261.013 354.641 256.552 358.528 251.875C360.029 250.992 361.604 250.336 363.251 249.907Z" fill="#FA4BC6"/>
<path fill-rule="evenodd" clip-rule="evenodd" d="M126.331 274.308C132.255 273.535 136.452 275.765 138.925 280.998C138.811 281.606 138.549 282.131 138.138 282.572C133.811 281.346 129.35 280.822 124.757 280.998C123.127 281.744 121.947 282.925 121.215 284.54C121.021 287.208 120.628 289.832 120.034 292.411C119.378 292.673 118.722 292.936 118.066 293.198C115.326 292.044 112.571 290.863 109.802 289.656C105.733 288.637 102.191 289.556 99.1758 292.411C98.0108 295.65 96.6987 298.799 95.2402 301.856C91.9446 295.183 93.3873 289.543 99.5693 284.934C105.129 282.299 110.638 282.431 116.099 285.327C117.923 280.095 121.334 276.422 126.331 274.308Z" fill="#FC19B5"/>
<path fill-rule="evenodd" clip-rule="evenodd" d="M292.411 283.753C302.193 282.647 307.703 286.976 308.94 296.74C309.557 299.569 308.508 301.012 305.792 301.069C305.824 294.007 302.414 290.072 295.56 289.263C291.467 289.803 287.663 291.115 284.146 293.198C283.103 292.998 282.316 292.473 281.785 291.624C281.523 289.263 281.26 286.901 280.998 284.54C279.688 281.719 277.458 280.407 274.308 280.605C271.457 281.045 268.703 281.832 266.043 282.966C263.727 283.015 262.94 281.966 263.682 279.817C267.996 274.063 273.374 272.882 279.817 276.275C282.977 278.766 285.338 281.783 286.901 285.327C288.568 284.189 290.405 283.664 292.411 283.753Z" fill="#FC16B4"/>
<path fill-rule="evenodd" clip-rule="evenodd" d="M87.7627 279.03C89.4432 278.752 90.4924 279.408 90.9112 280.998C88.0988 285.182 86.2625 289.774 85.4014 294.772C85.8162 297.198 86.4719 299.559 87.3692 301.856C88.9127 303.768 90.3555 305.735 91.6983 307.76C91.2701 309.292 90.2209 309.948 88.5498 309.728C86.6049 309.495 84.9 308.708 83.4336 307.366C76.6622 296.611 78.1052 287.166 87.7627 279.03Z" fill="#FFC4EE"/>
<path fill-rule="evenodd" clip-rule="evenodd" d="M161.751 279.03C172.04 279.207 175.845 284.191 173.164 293.985C167.898 299.86 162.389 300.122 156.635 294.772C153.163 287.817 154.868 282.569 161.751 279.03Z" fill="#061142"/>
<path fill-rule="evenodd" clip-rule="evenodd" d="M234.952 279.03C243.743 278.769 247.81 282.967 247.152 291.624C244.786 297.578 240.457 299.808 234.165 298.314C227.771 294.61 226.328 289.493 229.836 282.966C231.383 281.352 233.088 280.04 234.952 279.03Z" fill="#051142"/>
<path opacity="0.956" fill-rule="evenodd" clip-rule="evenodd" d="M24.794 282.179C26.2819 282.019 27.4626 282.543 28.336 283.753C31.0199 290.961 35.0867 297.258 40.5362 302.643C39.0133 305.35 37.0455 307.711 34.6328 309.727C31.7898 313.576 29.5597 317.774 27.9424 322.321C26.6305 324.42 25.3187 324.42 24.0069 322.321C21.5811 315.632 17.7768 309.859 12.5938 305.005C12.069 303.693 12.069 302.381 12.5938 301.069C18.0517 295.661 22.1184 289.364 24.794 282.179Z" fill="#FD8A01"/>
<path opacity="0.949" fill-rule="evenodd" clip-rule="evenodd" d="M375.058 282.179C376.545 282.019 377.726 282.543 378.6 283.753C380.691 290.565 384.364 296.337 389.619 301.069C390.144 302.381 390.144 303.693 389.619 305.005C384.09 309.62 380.286 315.392 378.206 322.321C376.894 324.42 375.583 324.42 374.271 322.321C372.653 317.774 370.423 313.576 367.58 309.727C365.168 307.711 363.2 305.35 361.677 302.643C367.394 296.66 371.854 289.839 375.058 282.179Z" fill="#FD8A01"/>
<path fill-rule="evenodd" clip-rule="evenodd" d="M185.364 290.05C186.405 289.916 187.323 290.178 188.119 290.837C187.795 298.2 190.813 303.579 197.171 306.973C204.328 308.529 209.444 306.037 212.52 299.495C213.178 296.447 213.833 293.429 214.487 290.443C215.498 289.905 216.417 290.036 217.242 290.837C217.959 300.82 213.63 307.51 204.255 310.908C193.834 311.522 187.405 306.669 184.971 296.347C184.402 294.173 184.534 292.075 185.364 290.05Z" fill="#121548"/>
<path fill-rule="evenodd" clip-rule="evenodd" d="M158.603 302.644C164.832 301.855 170.604 303.036 175.919 306.186C180.71 312.044 179.661 316.767 172.771 320.354C165.107 323.424 157.76 322.9 150.731 318.779C146.395 314.343 146.657 310.146 151.519 306.186C153.952 304.969 156.314 303.788 158.603 302.644Z" fill="#FC11B3"/>
<path fill-rule="evenodd" clip-rule="evenodd" d="M233.378 302.644C239.533 302.064 245.305 303.245 250.694 306.185C256.272 311.557 255.747 316.279 249.12 320.353C241.477 323.358 234.131 322.833 227.081 318.779C222.22 314.819 221.958 310.622 226.294 306.185C228.606 304.768 230.967 303.587 233.378 302.644Z" fill="#FC11B3"/>
<path opacity="0.949" fill-rule="evenodd" clip-rule="evenodd" d="M-0.393555 353.019C-0.393555 351.706 -0.393555 350.395 -0.393555 349.083C4.05045 344.933 7.33007 339.947 9.44531 334.128C10.7572 332.029 12.069 332.029 13.3809 334.128C15.7464 340.443 19.2884 345.953 24.0068 350.657C19.377 355.814 15.7038 361.585 12.9873 367.974C11.9379 369.023 10.8883 369.023 9.83887 367.974C7.77097 361.979 4.36016 356.994 -0.393555 353.019Z" fill="#FD8A01"/>
<path opacity="0.945" fill-rule="evenodd" clip-rule="evenodd" d="M402.606 349.083C402.606 350.395 402.606 351.706 402.606 353.019C397.853 356.994 394.442 361.979 392.374 367.974C391.325 369.023 390.275 369.023 389.226 367.974C386.509 361.585 382.836 355.814 378.206 350.657C382.925 345.953 386.467 340.443 388.832 334.128C390.144 332.029 391.455 332.029 392.768 334.128C394.883 339.947 398.162 344.933 402.606 349.083Z" fill="#FD8A01"/>
<path fill-rule="evenodd" clip-rule="evenodd" d="M116.099 337.276C127.955 336.529 135.039 342.039 137.351 353.806C146.629 350.03 153.319 352.654 157.422 361.677C157.947 363.251 157.947 364.825 157.422 366.399C156.53 367.746 155.349 368.14 153.88 367.58C149.482 356.753 142.923 355.179 134.202 362.857C132.733 363.417 131.552 363.023 130.66 361.677C130.398 358.003 130.135 354.331 129.873 350.657C128.356 346.778 125.601 344.286 121.608 343.18C117.352 343.037 113.155 342.906 109.015 342.786C110.734 340.004 113.096 338.168 116.099 337.276Z" fill="#FC19B4"/>
<path fill-rule="evenodd" clip-rule="evenodd" d="M286.901 338.063C289.511 338.855 291.611 340.429 293.198 342.786C289.038 343.072 284.839 343.203 280.604 343.18C276.611 344.286 273.857 346.778 272.34 350.657C272.078 354.331 271.815 358.003 271.553 361.677C270.661 363.023 269.48 363.417 268.011 362.857C259.193 354.914 252.633 356.488 248.333 367.58C245.714 367.984 244.403 366.803 244.397 364.038C245.085 359.385 247.446 355.843 251.481 353.412C256.286 351.9 261.009 351.9 265.649 353.412C266.079 350.181 267.128 347.164 268.798 344.36C273.249 337.891 279.284 335.792 286.901 338.063Z" fill="#FC10B3"/>
<path fill-rule="evenodd" clip-rule="evenodd" d="M210.552 359.315C208.261 364.397 204.326 366.628 198.745 366.006C197.945 365.18 197.813 364.262 198.352 363.251C201.472 362.098 203.703 359.999 205.042 356.954C205.172 354.317 205.04 351.694 204.648 349.083C202.692 345.559 200.2 342.541 197.171 340.031C198.322 338.299 199.896 337.774 201.894 338.457C210.741 342.904 213.627 349.857 210.552 359.315Z" fill="#FC19B4"/>
<path opacity="0.937" fill-rule="evenodd" clip-rule="evenodd" d="M56.2783 343.573C57.319 343.439 58.2372 343.702 59.0332 344.36C60.6074 347.509 62.1816 350.657 63.7559 353.806C65.9012 356.338 67.869 358.961 69.6592 361.677C67.9149 365.134 65.6847 368.282 62.9688 371.122C61.7032 373.391 60.6536 375.752 59.8203 378.206C58.7217 379.802 57.4099 380.064 55.8848 378.993C53.3282 372.559 49.7862 366.787 45.2588 361.677C47.3126 358.698 49.5427 355.812 51.9492 353.019C53.619 349.943 55.062 346.795 56.2783 343.573Z" fill="#FD8B01"/>
<path opacity="0.945" fill-rule="evenodd" clip-rule="evenodd" d="M343.573 343.573C344.614 343.439 345.532 343.702 346.328 344.36C347.425 347.34 348.736 350.226 350.264 353.019C352.67 355.812 354.901 358.698 356.954 361.677C354.901 364.655 352.67 367.541 350.264 370.335C348.736 373.128 347.425 376.013 346.328 378.993C344.803 380.064 343.491 379.802 342.393 378.206C339.943 371.862 336.401 366.221 331.767 361.283C337.175 356.373 341.11 350.47 343.573 343.573Z" fill="#FD8B01"/>
</g>
<defs>
<clipPath id="clip0_119_204">
<rect width="403" height="403" fill="white"/>
</clipPath>
</defs>
</svg>
