<svg xmlns="http://www.w3.org/2000/svg" width="87.443" height="87.423" viewBox="0 0 87.443 87.423">
  <path id="Icon_awesome-instagram" data-name="Icon awesome-instagram" d="M43.726,23.535A22.414,22.414,0,1,0,66.14,45.949,22.379,22.379,0,0,0,43.726,23.535Zm0,36.986A14.572,14.572,0,1,1,58.3,45.949,14.6,14.6,0,0,1,43.726,60.522Zm28.559-37.9a5.228,5.228,0,1,1-5.228-5.228A5.216,5.216,0,0,1,72.285,22.618ZM87.13,27.924c-.332-7-1.931-13.207-7.062-18.318C74.958,4.5,68.754,2.9,61.751,2.545c-7.218-.41-28.852-.41-36.07,0C18.7,2.877,12.494,4.476,7.364,9.587S.653,20.9.3,27.9c-.41,7.218-.41,28.852,0,36.07.332,7,1.931,13.207,7.062,18.318S18.678,89,25.681,89.354c7.218.41,28.852.41,36.07,0,7-.332,13.207-1.931,18.318-7.062,5.111-5.111,6.711-11.314,7.062-18.318.41-7.218.41-28.832,0-36.05ZM77.806,71.719a14.753,14.753,0,0,1-8.31,8.31c-5.755,2.282-19.41,1.756-25.77,1.756s-20.034.507-25.77-1.756a14.753,14.753,0,0,1-8.31-8.31C7.364,65.964,7.89,52.309,7.89,45.949S7.383,25.915,9.646,20.18a14.753,14.753,0,0,1,8.31-8.31c5.755-2.282,19.41-1.756,25.77-1.756S63.76,9.607,69.5,11.87a14.753,14.753,0,0,1,8.31,8.31c2.282,5.755,1.756,19.41,1.756,25.77S80.088,65.984,77.806,71.719Z" transform="translate(0.005 -2.238)" fill="#ff00bc"/>
</svg>
