<svg xmlns="http://www.w3.org/2000/svg" width="79.063" height="75.597" viewBox="0 0 79.063 75.597">
  <path id="Icon_zocial-linkedin" data-name="Icon zocial-linkedin" d="M-.18,8.881A8.114,8.114,0,0,1,2.457,2.665,9.675,9.675,0,0,1,9.314.216,9.387,9.387,0,0,1,16.02,2.627a8.5,8.5,0,0,1,2.637,6.48A7.934,7.934,0,0,1,16.1,15.135a9.693,9.693,0,0,1-6.932,2.487H9.088a9.221,9.221,0,0,1-6.706-2.487A8.351,8.351,0,0,1-.18,8.881ZM.8,74.813V24.479H17.527V74.813H.8Zm26,0H43.523V46.707a10.847,10.847,0,0,1,.6-4.069,10.928,10.928,0,0,1,3.2-4.333,8.187,8.187,0,0,1,5.388-1.771q8.439,0,8.439,11.378v26.9H77.883V45.954q0-11.152-5.275-16.916t-13.94-5.764q-9.72,0-15.145,8.364v.151h-.075l.075-.151V24.479H26.8q.151,2.411.151,14.995T26.8,74.813Z" transform="translate(0.68 0.284)" fill="#052794" stroke="#fff" stroke-width="1"/>
</svg>
